<?xml version="1.0" encoding="utf-8"?>
<!-- Generator: Adobe Illustrator 16.0.0, SVG Export Plug-In . SVG Version: 6.00 Build 0)  -->
<!DOCTYPE svg PUBLIC "-//W3C//DTD SVG 1.1//EN" "http://www.w3.org/Graphics/SVG/1.1/DTD/svg11.dtd">
<svg version="1.1" id="Layer_1" xmlns="http://www.w3.org/2000/svg" xmlns:xlink="http://www.w3.org/1999/xlink" x="0px" y="0px"
	 width="1024px" height="1024px" viewBox="171.629 30.121 1024 1024" enable-background="new 171.629 30.121 1024 1024"
	 xml:space="preserve">
<path d="M860.364,393.193l-318.719,65.621c-13.761,2.812-27.275-6.07-30.088-19.831c-2.816-13.762,6.066-27.275,19.828-30.152
	l318.66-65.589c13.761-2.816,27.273,6.066,30.151,19.799C883.012,376.802,874.065,390.377,860.364,393.193z"/>
<path d="M895.461,485.023l-43.792-133.15c-4.376-13.292,2.942-27.806,16.205-32.186c13.323-4.377,27.898,2.941,32.214,16.265
	l43.854,133.118c4.315,13.388-2.942,27.838-16.266,32.218C914.353,505.604,899.837,498.348,895.461,485.023z M549.215,458.061
	L386.694,643.226c-9.255,10.445-25.521,11.512-35.967,2.312c-10.573-9.319-11.638-25.459-2.378-36.031l162.581-185.1
	c9.259-10.511,25.46-11.572,35.971-2.314C557.473,431.381,558.474,447.553,549.215,458.061z"/>
<path d="M1004.493,448.927c106.158,0,192.17,86.076,192.17,192.169c0,106.221-86.012,192.235-192.17,192.235
	c-106.155,0-192.171-86.015-192.171-192.235C812.322,535.003,898.338,448.927,1004.493,448.927z"/>
<path d="M781.295,250.909h140.124c14.013,0,25.524,11.48,25.524,25.492s-11.512,25.521-25.524,25.521H781.295
	c-14.073,0-25.585-11.509-25.585-25.521S767.222,250.909,781.295,250.909z M460.95,260.01h140.125
	c14.013,0,25.46,11.448,25.46,25.492c0,14.045-11.447,25.521-25.46,25.521H460.95c-14.077,0-25.524-11.476-25.524-25.521
	C435.426,271.458,446.873,260.01,460.95,260.01z"/>
<path d="M363.799,448.927c106.094,0,192.11,86.076,192.11,192.169c0,106.221-86.016,192.235-192.11,192.235
	c-106.155,0-192.17-86.015-192.17-192.235C171.629,535.003,257.644,448.927,363.799,448.927z"/>
<path d="M607.643,663.619L495.354,358.284c-4.814-13.166,1.941-27.928,15.139-32.746c13.137-4.847,27.838,1.969,32.718,15.138
	L655.495,646.04c4.883,13.074-1.938,27.839-15.074,32.653C627.224,683.572,612.522,676.817,607.643,663.619z"/>
<path d="M638.479,651.046l225.954-257.354c9.32-10.507,25.459-11.573,36.031-2.313c10.447,9.226,11.573,25.46,2.314,36
	L676.766,684.764c-9.32,10.508-25.461,11.573-36.033,2.313C630.226,677.817,629.16,661.618,638.479,651.046L638.479,651.046z"/>
<path d="M636.98,649.481c25.334,0,45.915,20.642,45.915,45.914c0,25.399-20.581,45.916-45.915,45.916
	c-25.273,0-45.854-20.517-45.854-45.916C591.126,670.123,611.707,649.481,636.98,649.481z"/>
<path d="M601.447,716.479L378.44,611.946c-12.7-6.006-18.268-21.267-12.262-33.905c6.006-12.635,21.206-18.202,33.904-12.258
	l223.012,104.591c12.699,5.945,18.264,21.205,12.258,33.905C629.412,717.043,614.146,722.421,601.447,716.479L601.447,716.479z"/>
</svg>
