<?xml version="1.0" encoding="utf-8"?>
<!-- Generator: Adobe Illustrator 16.0.0, SVG Export Plug-In . SVG Version: 6.00 Build 0)  -->
<!DOCTYPE svg PUBLIC "-//W3C//DTD SVG 1.1//EN" "http://www.w3.org/Graphics/SVG/1.1/DTD/svg11.dtd">
<svg version="1.1" id="Layer_1" xmlns="http://www.w3.org/2000/svg" xmlns:xlink="http://www.w3.org/1999/xlink" x="0px" y="0px"
	 width="1080px" height="1080px" viewBox="0 0 1080 1080" enable-background="new 0 0 1080 1080" xml:space="preserve" fill="white">
<path d="M814.817,431.247L577.553,480.1c-10.229,2.106-20.317-4.541-22.43-14.771c-2.105-10.229,4.542-20.317,14.771-22.429
	l237.265-48.854c10.229-2.105,20.317,4.541,22.429,14.771C831.688,419.053,825.047,429.142,814.817,431.247z"/>
<path d="M840.965,499.617l-32.611-99.123c-3.266-9.917,2.182-20.706,12.1-23.971s20.706,2.183,23.971,12.1l32.611,99.124
	c3.265,9.918-2.182,20.706-12.1,23.971S844.229,509.535,840.965,499.617z M583.194,479.547l-121.023,137.8
	c-6.895,7.848-18.947,8.63-26.794,1.735c-7.848-6.894-8.63-18.946-1.735-26.794l121.023-137.8c6.894-7.847,18.946-8.63,26.794-1.735
	C589.306,459.647,590.088,471.7,583.194,479.547z"/>
<circle cx="922.147" cy="615.853" r="143.083"/>
<path d="M14.771,336.806c0-3.665,1.629-6.817,4.894-9.458c3.265-2.635,7.224-3.959,11.871-3.959s8.606,1.324,11.871,3.959
	c3.265,2.641,4.894,5.794,4.894,9.458v160.988c0,3.671-1.635,6.823-4.894,9.459c-3.265,2.642-7.224,3.959-11.871,3.959
	c-4.653,0-8.612-1.317-11.871-3.959c-3.265-2.636-4.894-5.788-4.894-9.459V336.806z M95.265,497.794
	c0,3.671-1.635,6.823-4.894,9.459c-3.265,2.642-7.224,3.959-11.871,3.959c-4.653,0-8.612-1.317-11.871-3.959
	c-3.265-2.636-4.894-5.788-4.894-9.459V336.806c0-3.665,1.629-6.817,4.894-9.458c3.265-2.635,7.224-3.959,11.871-3.959
	s8.629,1.3,11.941,3.888c1.518,1.253,2.682,2.641,3.488,4.159l41.588,41.588v-36.218c0-3.665,1.629-6.817,4.894-9.458
	c3.265-2.635,7.224-3.959,11.871-3.959s8.606,1.324,11.871,3.959c3.265,2.641,4.894,5.794,4.894,9.458v160.988
	c0,3.671-1.635,6.823-4.894,9.459c-3.265,2.642-7.224,3.959-11.871,3.959c-4.653,0-8.612-1.317-11.871-3.959
	c-3.265-2.636-4.894-5.788-4.894-9.459v-77.812l-40.247-40.247v118.059H95.265z M289.794,464.253
	c0,31.306-17.888,46.953-53.665,46.953h-36.894c-4.653,0-8.612-1.317-11.871-3.959c-3.265-2.636-4.894-5.788-4.894-9.459V336.806
	c0-3.665,1.629-6.817,4.894-9.458c3.265-2.635,7.224-3.959,11.871-3.959h36.894c35.776,0,53.665,15.653,53.665,46.953v13.417
	c0,14.576-3.888,25.759-11.67,33.541c7.782,7.782,11.67,18.965,11.67,33.541V464.253L289.794,464.253z M256.259,370.341
	c0-13.417-6.706-20.124-20.124-20.124h-20.124v53.665h20.124c13.417,0,20.124-6.706,20.124-20.124V370.341z M236.129,484.377
	c13.417,0,20.124-6.706,20.124-20.124v-13.418c0-13.417-6.706-20.123-20.124-20.123h-20.124v53.665H236.129L236.129,484.377z
	 M356.877,323.388c35.776,0,53.664,15.653,53.664,46.953v13.417c0,31.306-17.888,46.953-53.664,46.953h-20.124v67.076
	c0,3.671-1.636,6.823-4.895,9.459c-3.265,2.642-7.224,3.959-11.87,3.959c-4.653,0-8.611-1.317-11.871-3.959
	c-3.264-2.636-4.894-5.788-4.894-9.459V336.806c0-3.665,1.629-6.817,4.894-9.458c3.266-2.635,7.224-3.959,11.871-3.959H356.877z
	 M377,370.341c0-13.418-6.706-20.124-20.123-20.124h-20.124v53.665h20.124c13.417,0,20.123-6.706,20.123-20.124V370.341z
	 M755.936,325.306h104.347c10.441,0,18.988,8.547,18.988,18.988c0,10.441-8.547,18.988-18.988,18.988H755.936
	c-10.441,0-18.988-8.547-18.988-18.988C736.947,333.853,745.488,325.306,755.936,325.306z M517.447,332.083h104.347
	c10.441,0,18.988,8.547,18.988,18.988c0,10.441-8.547,18.988-18.988,18.988H517.447c-10.441,0-18.988-8.547-18.988-18.988
	C498.459,340.629,507,332.083,517.447,332.083z"/>
<circle cx="445.111" cy="615.853" r="143.083"/>
<path d="M626.688,632.594l-83.636-227.347c-3.605-9.8,1.465-20.771,11.265-24.376s20.771,1.465,24.377,11.265l83.635,227.347
	c3.606,9.8-1.464,20.771-11.265,24.376C641.265,647.465,630.294,642.395,626.688,632.594z"/>
<path d="M649.611,623.229l168.277-191.606c6.894-7.847,18.946-8.629,26.794-1.734c7.847,6.894,8.629,18.946,1.735,26.794
	L678.141,648.288c-6.894,7.848-18.946,8.63-26.794,1.735C643.5,643.13,642.718,631.07,649.611,623.229L649.611,623.229z"/>
<circle cx="648.535" cy="656.265" r="34.153"/>
<path d="M622.082,671.977l-166.053-77.859c-9.453-4.435-13.564-15.794-9.129-25.252c4.435-9.453,15.794-13.565,25.253-9.13
	l166.053,77.858c9.453,4.436,13.564,15.795,9.129,25.253C642.9,672.3,631.535,676.406,622.082,671.977L622.082,671.977z"/>
</svg>
